# xmcd
#
# Track frame offsets: 
#        150
#        17712
#        31400
#        45332
#        63957
#        76634
#        91268
#        102374
#        116676
#        130312
#        143217
#
# Disc length: 2132 seconds
#
# Revision: 0
# Processed by: cddbd v1.5.2PL0 Copyright (c) Steve Scherf et al.
# Submitted via: ExactAudioCopy v1.3
#
DISCID=8408520b
DTITLE=Elise Legrow - Playing Chess
DYEAR=2018
DGENRE=Blues
TTITLE0=Who Do You Love
TTITLE1=Hold On
TTITLE2=You Never Can Tell
TTITLE3=Over The Mountain, Across The Sea
TTITLE4=Searching For My Baby
TTITLE5=Long and Lonely Nights
TTITLE6=Going Back Where I Belong
TTITLE7=Rescue Me
TTITLE8=You Can't Judge a Book by the Cover - You Can't Catch Me
TTITLE9=Can't Shake It
TTITLE10=Sincerely
EXTD=
EXTT0=
EXTT1=
EXTT2=
EXTT3=
EXTT4=
EXTT5=
EXTT6=
EXTT7=
EXTT8=
EXTT9=
EXTT10=
PLAYORDER=
